STARTFONT 2.1
FONT pc12x20
SIZE 20 75 75
FONTBOUNDINGBOX 12 20 0 -4
STARTPROPERTIES 3
DEFAULT_CHAR 0
FONT_DESCENT 4
FONT_ASCENT 16
ENDPROPERTIES
CHARS 256
STARTCHAR null
ENCODING 0
SWIDTH 666 0
DWIDTH 12 0
BBX 12 20 0 -4
BITMAP
0000
0000
0000
0000
0000
0000
0000
0000
0000
0000
0000
0000
0000
0000
0000
0000
0000
0000
0000
0000
ENDCHAR
STARTCHAR smiley
ENCODING 1
SWIDTH 666 0
DWIDTH 12 0
BBX 12 20 0 -4
BITMAP
0000
0000
7fe0
c030
8010
8010
9990
9990
8010
8010
9090
9f90
8f10
8010
c030
7fe0
0000
0000
0000
0000
ENDCHAR
STARTCHAR reverse_smiley
ENCODING 2
SWIDTH 666 0
DWIDTH 12 0
BBX 12 20 0 -4
BITMAP
0000
0000
7fe0
fff0
fff0
fff0
e670
e670
fff0
fff0
ef70
e070
f0f0
fff0
fff0
7fe0
0000
0000
0000
0000
ENDCHAR
STARTCHAR heart
ENCODING 3
SWIDTH 666 0
DWIDTH 12 0
BBX 12 20 0 -4
BITMAP
0000
0000
0000
0000
3180
7bc0
7fc0
7fc0
7fc0
7fc0
7fc0
3f80
3f80
1f00
0e00
0400
0000
0000
0000
0000
ENDCHAR
STARTCHAR diamond
ENCODING 4
SWIDTH 666 0
DWIDTH 12 0
BBX 12 20 0 -4
BITMAP
0000
0000
0000
0000
0c00
1e00
3f00
7f80
ffc0
ffc0
7f80
3f00
1e00
0c00
0000
0000
0000
0000
0000
0000
ENDCHAR
STARTCHAR club
ENCODING 5
SWIDTH 666 0
DWIDTH 12 0
BBX 12 20 0 -4
BITMAP
0000
0000
0c00
1e00
1e00
1e00
0c00
6d80
ffc0
ffc0
6d80
0c00
0c00
0c00
7f80
7f80
0000
0000
0000
0000
ENDCHAR
STARTCHAR spade
ENCODING 6
SWIDTH 666 0
DWIDTH 12 0
BBX 12 20 0 -4
BITMAP
0000
0000
0c00
1e00
3f00
7f80
ffc0
ffc0
ffc0
ffc0
ffc0
6d80
0c00
0c00
7f80
7f80
0000
0000
0000
0000
ENDCHAR
STARTCHAR spot
ENCODING 7
SWIDTH 666 0
DWIDTH 12 0
BBX 12 20 0 -4
BITMAP
0000
0000
0000
0000
0000
0000
0600
0f00
1f80
3fc0
3fc0
1f80
0f00
0600
0000
0000
0000
0000
0000
0000
ENDCHAR
STARTCHAR reverse_spot
ENCODING 8
SWIDTH 666 0
DWIDTH 12 0
BBX 12 20 0 -4
BITMAP
fff0
fff0
fff0
fff0
fff0
fff0
f9f0
f0f0
e070
c030
c030
e070
f0f0
f9f0
fff0
fff0
fff0
fff0
fff0
fff0
ENDCHAR
STARTCHAR circle
ENCODING 9
SWIDTH 666 0
DWIDTH 12 0
BBX 12 20 0 -4
BITMAP
0000
0000
0000
0000
0000
0000
0f00
1f80
30c0
30c0
30c0
30c0
1f80
0f00
0000
0000
0000
0000
0000
0000
ENDCHAR
STARTCHAR reverse_circle
ENCODING 10
SWIDTH 666 0
DWIDTH 12 0
BBX 12 20 0 -4
BITMAP
fff0
fff0
fff0
fff0
fff0
fff0
e070
d0b0
cf30
cf30
cf30
cf30
d0b0
e070
fff0
fff0
fff0
fff0
fff0
fff0
ENDCHAR
STARTCHAR male
ENCODING 11
SWIDTH 666 0
DWIDTH 12 0
BBX 12 20 0 -4
BITMAP
0000
0000
0fc0
07c0
03c0
03c0
06c0
0c40
3c00
7e00
c300
c300
c300
c300
7e00
3c00
0000
0000
0000
0000
ENDCHAR
STARTCHAR female
ENCODING 12
SWIDTH 666 0
DWIDTH 12 0
BBX 12 20 0 -4
BITMAP
0000
0000
1e00
3f00
6180
6180
6180
6180
3f00
1e00
0c00
7f80
7f80
0c00
0c00
0c00
0000
0000
0000
0000
ENDCHAR
STARTCHAR note
ENCODING 13
SWIDTH 666 0
DWIDTH 12 0
BBX 12 20 0 -4
BITMAP
0000
0000
1fc0
18c0
18c0
1fc0
1800
1800
1800
1800
1800
1800
3800
7800
f800
f000
6000
0000
0000
0000
ENDCHAR
STARTCHAR note2
ENCODING 14
SWIDTH 666 0
DWIDTH 12 0
BBX 12 20 0 -4
BITMAP
0000
0000
3fc0
30c0
30c0
3fc0
30c0
30c0
30c0
30c0
30c0
30c0
31c0
33c0
73c0
f180
f000
6000
0000
0000
ENDCHAR
STARTCHAR sun
ENCODING 15
SWIDTH 666 0
DWIDTH 12 0
BBX 12 20 0 -4
BITMAP
0000
0000
0c00
0c00
ccc0
edc0
3f00
3300
f3c0
f3c0
3300
3f00
edc0
ccc0
0c00
0c00
0000
0000
0000
0000
ENDCHAR
STARTCHAR right_wedge
ENCODING 16
SWIDTH 666 0
DWIDTH 12 0
BBX 12 20 0 -4
BITMAP
0000
0000
6000
7000
7800
7c00
7e00
7f00
7f80
7f80
7f00
7e00
7c00
7800
7000
6000
0000
0000
0000
0000
ENDCHAR
STARTCHAR left_wedge
ENCODING 17
SWIDTH 666 0
DWIDTH 12 0
BBX 12 20 0 -4
BITMAP
0000
0000
0180
0380
0780
0f80
1f80
3f80
7f80
7f80
3f80
1f80
0f80
0780
0380
0180
0000
0000
0000
0000
ENDCHAR
STARTCHAR vdbl_arrow
ENCODING 18
SWIDTH 666 0
DWIDTH 12 0
BBX 12 20 0 -4
BITMAP
0000
0000
0c00
1e00
3f00
7f80
0c00
0c00
0c00
0c00
0c00
0c00
7f80
3f00
1e00
0c00
0000
0000
0000
0000
ENDCHAR
STARTCHAR dbl_exclamation
ENCODING 19
SWIDTH 666 0
DWIDTH 12 0
BBX 12 20 0 -4
BITMAP
0000
0000
30c0
30c0
30c0
30c0
30c0
30c0
30c0
30c0
30c0
30c0
0000
0000
30c0
30c0
0000
0000
0000
0000
ENDCHAR
STARTCHAR paragraph
ENCODING 20
SWIDTH 666 0
DWIDTH 12 0
BBX 12 20 0 -4
BITMAP
0000
0000
7fc0
ffc0
fb00
fb00
fb00
7b00
1b00
1b00
1b00
1b00
1b00
1b00
1b00
1b00
0000
0000
0000
0000
ENDCHAR
STARTCHAR section
ENCODING 21
SWIDTH 666 0
DWIDTH 12 0
BBX 12 20 0 -4
BITMAP
0000
0000
3f00
6180
6000
6000
3f00
6180
6180
6180
6180
3f00
0180
0180
6180
3f00
0000
0000
0000
0000
ENDCHAR
STARTCHAR hblock
ENCODING 22
SWIDTH 666 0
DWIDTH 12 0
BBX 12 20 0 -4
BITMAP
0000
0000
0000
0000
0000
0000
0000
0000
0000
0000
ffc0
ffc0
ffc0
ffc0
ffc0
ffc0
0000
0000
0000
0000
ENDCHAR
STARTCHAR ul_vdbl_arrow
ENCODING 23
SWIDTH 666 0
DWIDTH 12 0
BBX 12 20 0 -4
BITMAP
0000
0000
0c00
1e00
3f00
7f80
0c00
0c00
0c00
0c00
0c00
0c00
7f80
3f00
1e00
0c00
7f80
7f80
0000
0000
ENDCHAR
STARTCHAR up_arrow
ENCODING 24
SWIDTH 666 0
DWIDTH 12 0
BBX 12 20 0 -4
BITMAP
0000
0000
0c00
1e00
3f00
7f80
0c00
0c00
0c00
0c00
0c00
0c00
0c00
0c00
0c00
0c00
0000
0000
0000
0000
ENDCHAR
STARTCHAR down_arrow
ENCODING 25
SWIDTH 666 0
DWIDTH 12 0
BBX 12 20 0 -4
BITMAP
0000
0000
0c00
0c00
0c00
0c00
0c00
0c00
0c00
0c00
0c00
0c00
7f80
3f00
1e00
0c00
0000
0000
0000
0000
ENDCHAR
STARTCHAR right_arrow
ENCODING 26
SWIDTH 666 0
DWIDTH 12 0
BBX 12 20 0 -4
BITMAP
0000
0000
0000
0000
0000
0200
0300
0380
ffc0
ffc0
0380
0300
0200
0000
0000
0000
0000
0000
0000
0000
ENDCHAR
STARTCHAR left_arrow
ENCODING 27
SWIDTH 666 0
DWIDTH 12 0
BBX 12 20 0 -4
BITMAP
0000
0000
0000
0000
0000
1000
3000
7000
ffc0
ffc0
7000
3000
1000
0000
0000
0000
0000
0000
0000
0000
ENDCHAR
STARTCHAR ul_angle
ENCODING 28
SWIDTH 666 0
DWIDTH 12 0
BBX 12 20 0 -4
BITMAP
0000
0000
0000
0000
0000
0000
c000
c000
c000
c000
ffc0
ffc0
0000
0000
0000
0000
0000
0000
0000
0000
ENDCHAR
STARTCHAR hdbl_arrow
ENCODING 29
SWIDTH 666 0
DWIDTH 12 0
BBX 12 20 0 -4
BITMAP
0000
0000
0000
0000
0000
1080
30c0
70e0
fff0
fff0
70e0
30c0
1080
0000
0000
0000
0000
0000
0000
0000
ENDCHAR
STARTCHAR up_wedge
ENCODING 30
SWIDTH 666 0
DWIDTH 12 0
BBX 12 20 0 -4
BITMAP
0000
0000
0000
0000
0c00
0c00
1e00
1e00
3f00
3f00
7f80
7f80
ffc0
ffc0
0000
0000
0000
0000
0000
0000
ENDCHAR
STARTCHAR down_wedge
ENCODING 31
SWIDTH 666 0
DWIDTH 12 0
BBX 12 20 0 -4
BITMAP
0000
0000
0000
0000
ffc0
ffc0
7f80
7f80
3f00
3f00
1e00
1e00
0c00
0c00
0000
0000
0000
0000
0000
0000
ENDCHAR
STARTCHAR space
ENCODING 32
SWIDTH 666 0
DWIDTH 12 0
BBX 12 20 0 -4
BITMAP
0000
0000
0000
0000
0000
0000
0000
0000
0000
0000
0000
0000
0000
0000
0000
0000
0000
0000
0000
0000
ENDCHAR
STARTCHAR !
ENCODING 33
SWIDTH 666 0
DWIDTH 12 0
BBX 12 20 0 -4
BITMAP
0000
0000
0c00
0c00
0c00
0c00
0c00
0c00
0c00
0c00
0c00
0c00
0000
0000
0c00
0c00
0000
0000
0000
0000
ENDCHAR
STARTCHAR "
ENCODING 34
SWIDTH 666 0
DWIDTH 12 0
BBX 12 20 0 -4
BITMAP
0000
0000
3300
3300
3300
3300
3300
0000
0000
0000
0000
0000
0000
0000
0000
0000
0000
0000
0000
0000
ENDCHAR
STARTCHAR #
ENCODING 35
SWIDTH 666 0
DWIDTH 12 0
BBX 12 20 0 -4
BITMAP
0000
0000
0000
3300
3300
3300
ffc0
3300
3300
3300
ffc0
3300
3300
3300
0000
0000
0000
0000
0000
0000
ENDCHAR
STARTCHAR $
ENCODING 36
SWIDTH 666 0
DWIDTH 12 0
BBX 12 20 0 -4
BITMAP
0000
0000
0c00
0c00
7f80
ccc0
cc00
cc00
7f80
0cc0
0cc0
0cc0
ccc0
7f80
0c00
0c00
0000
0000
0000
0000
ENDCHAR
STARTCHAR %
ENCODING 37
SWIDTH 666 0
DWIDTH 12 0
BBX 12 20 0 -4
BITMAP
0000
0000
0000
7000
d840
d8c0
d980
7300
0600
0c00
1800
3380
66c0
c6c0
86c0
0380
0000
0000
0000
0000
ENDCHAR
STARTCHAR &
ENCODING 38
SWIDTH 666 0
DWIDTH 12 0
BBX 12 20 0 -4
BITMAP
0000
0000
3800
6c00
6c00
6c00
6c00
7800
3000
7180
db00
ce00
c600
c700
fd80
78c0
0000
0000
0000
0000
ENDCHAR
STARTCHAR '
ENCODING 39
SWIDTH 666 0
DWIDTH 12 0
BBX 12 20 0 -4
BITMAP
0000
0000
0e00
0e00
0e00
0c00
1800
1000
0000
0000
0000
0000
0000
0000
0000
0000
0000
0000
0000
0000
ENDCHAR
STARTCHAR (
ENCODING 40
SWIDTH 666 0
DWIDTH 12 0
BBX 12 20 0 -4
BITMAP
0000
0000
0300
0600
0c00
0c00
0c00
0c00
0c00
0c00
0c00
0c00
0c00
0c00
0600
0300
0000
0000
0000
0000
ENDCHAR
STARTCHAR )
ENCODING 41
SWIDTH 666 0
DWIDTH 12 0
BBX 12 20 0 -4
BITMAP
0000
0000
3000
1800
0c00
0c00
0c00
0c00
0c00
0c00
0c00
0c00
0c00
0c00
1800
3000
0000
0000
0000
0000
ENDCHAR
STARTCHAR *
ENCODING 42
SWIDTH 666 0
DWIDTH 12 0
BBX 12 20 0 -4
BITMAP
0000
0000
0000
0000
6180
3300
1e00
ffc0
ffc0
1e00
3300
6180
0000
0000
0000
0000
0000
0000
0000
0000
ENDCHAR
STARTCHAR +
ENCODING 43
SWIDTH 666 0
DWIDTH 12 0
BBX 12 20 0 -4
BITMAP
0000
0000
0000
0000
0c00
0c00
0c00
0c00
ffc0
ffc0
0c00
0c00
0c00
0c00
0000
0000
0000
0000
0000
0000
ENDCHAR
STARTCHAR ,
ENCODING 44
SWIDTH 666 0
DWIDTH 12 0
BBX 12 20 0 -4
BITMAP
0000
0000
0000
0000
0000
0000
0000
0000
0000
0000
0000
0000
1c00
1c00
1c00
1800
3000
2000
0000
0000
ENDCHAR
STARTCHAR -
ENCODING 45
SWIDTH 666 0
DWIDTH 12 0
BBX 12 20 0 -4
BITMAP
0000
0000
0000
0000
0000
0000
0000
0000
ffc0
ffc0
0000
0000
0000
0000
0000
0000
0000
0000
0000
0000
ENDCHAR
STARTCHAR .
ENCODING 46
SWIDTH 666 0
DWIDTH 12 0
BBX 12 20 0 -4
BITMAP
0000
0000
0000
0000
0000
0000
0000
0000
0000
0000
0000
0000
0000
1c00
1c00
1c00
0000
0000
0000
0000
ENDCHAR
STARTCHAR /
ENCODING 47
SWIDTH 666 0
DWIDTH 12 0
BBX 12 20 0 -4
BITMAP
0000
0000
0180
0180
0300
0300
0600
0600
0c00
0c00
1800
1800
3000
3000
6000
6000
0000
0000
0000
0000
ENDCHAR
STARTCHAR 0
ENCODING 48
SWIDTH 666 0
DWIDTH 12 0
BBX 12 20 0 -4
BITMAP
0000
0000
3f00
6180
c3c0
c3c0
c6c0
c6c0
ccc0
ccc0
d8c0
d8c0
f0c0
f0c0
6180
3f00
0000
0000
0000
0000
ENDCHAR
STARTCHAR 1
ENCODING 49
SWIDTH 666 0
DWIDTH 12 0
BBX 12 20 0 -4
BITMAP
0000
0000
0c00
1c00
3c00
6c00
cc00
0c00
0c00
0c00
0c00
0c00
0c00
0c00
0c00
ffc0
0000
0000
0000
0000
ENDCHAR
STARTCHAR 2
ENCODING 50
SWIDTH 666 0
DWIDTH 12 0
BBX 12 20 0 -4
BITMAP
0000
0000
3f00
6180
c0c0
00c0
00c0
0180
0700
1c00
3000
6000
c000
c000
c000
ffc0
0000
0000
0000
0000
ENDCHAR
STARTCHAR 3
ENCODING 51
SWIDTH 666 0
DWIDTH 12 0
BBX 12 20 0 -4
BITMAP
0000
0000
ffc0
00c0
0180
0300
0600
0f00
0180
00c0
00c0
00c0
00c0
c0c0
6180
3f00
0000
0000
0000
0000
ENDCHAR
STARTCHAR 4
ENCODING 52
SWIDTH 666 0
DWIDTH 12 0
BBX 12 20 0 -4
BITMAP
0000
0000
0c00
0c00
1800
1800
3180
3180
6180
6180
c180
ffc0
0180
0180
0180
0180
0000
0000
0000
0000
ENDCHAR
STARTCHAR 5
ENCODING 53
SWIDTH 666 0
DWIDTH 12 0
BBX 12 20 0 -4
BITMAP
0000
0000
ffc0
c000
c000
c000
df00
f180
e0c0
c0c0
00c0
00c0
00c0
c0c0
6180
3f00
0000
0000
0000
0000
ENDCHAR
STARTCHAR 6
ENCODING 54
SWIDTH 666 0
DWIDTH 12 0
BBX 12 20 0 -4
BITMAP
0000
0000
0700
0c00
1800
3000
6000
6000
df00
e180
c0c0
c0c0
c0c0
c0c0
6180
3f00
0000
0000
0000
0000
ENDCHAR
STARTCHAR 7
ENCODING 55
SWIDTH 666 0
DWIDTH 12 0
BBX 12 20 0 -4
BITMAP
0000
0000
ffc0
00c0
00c0
0180
0300
0600
0c00
1800
1800
1800
1800
1800
1800
1800
0000
0000
0000
0000
ENDCHAR
STARTCHAR 8
ENCODING 56
SWIDTH 666 0
DWIDTH 12 0
BBX 12 20 0 -4
BITMAP
0000
0000
3f00
6180
c0c0
c0c0
c0c0
6180
3f00
6180
c0c0
c0c0
c0c0
c0c0
6180
3f00
0000
0000
0000
0000
ENDCHAR
STARTCHAR 9
ENCODING 57
SWIDTH 666 0
DWIDTH 12 0
BBX 12 20 0 -4
BITMAP
0000
0000
3f00
6180
c0c0
c0c0
c0c0
c0c0
61c0
3ec0
0180
0180
0300
0600
0c00
3800
0000
0000
0000
0000
ENDCHAR
STARTCHAR :
ENCODING 58
SWIDTH 666 0
DWIDTH 12 0
BBX 12 20 0 -4
BITMAP
0000
0000
0000
0000
0000
0000
0000
1c00
1c00
1c00
0000
0000
0000
1c00
1c00
1c00
0000
0000
0000
0000
ENDCHAR
STARTCHAR ;
ENCODING 59
SWIDTH 666 0
DWIDTH 12 0
BBX 12 20 0 -4
BITMAP
0000
0000
0000
0000
0000
0000
0000
1c00
1c00
1c00
0000
0000
0000
1c00
1c00
1c00
1800
3000
2000
0000
ENDCHAR
STARTCHAR <
ENCODING 60
SWIDTH 666 0
DWIDTH 12 0
BBX 12 20 0 -4
BITMAP
0000
0000
0000
0300
0600
0c00
1800
3000
6000
3000
1800
0c00
0600
0300
0000
0000
0000
0000
0000
0000
ENDCHAR
STARTCHAR =
ENCODING 61
SWIDTH 666 0
DWIDTH 12 0
BBX 12 20 0 -4
BITMAP
0000
0000
0000
0000
0000
0000
ffc0
ffc0
0000
0000
ffc0
ffc0
0000
0000
0000
0000
0000
0000
0000
0000
ENDCHAR
STARTCHAR >
ENCODING 62
SWIDTH 666 0
DWIDTH 12 0
BBX 12 20 0 -4
BITMAP
0000
0000
0000
6000
3000
1800
0c00
0600
0300
0600
0c00
1800
3000
6000
0000
0000
0000
0000
0000
0000
ENDCHAR
STARTCHAR ?
ENCODING 63
SWIDTH 666 0
DWIDTH 12 0
BBX 12 20 0 -4
BITMAP
0000
0000
3f00
6180
6180
0180
0180
0300
0600
0c00
0c00
0c00
0000
0000
0c00
0c00
0000
0000
0000
0000
ENDCHAR
STARTCHAR @
ENCODING 64
SWIDTH 666 0
DWIDTH 12 0
BBX 12 20 0 -4
BITMAP
0000
0000
3f00
6180
c0c0
c0c0
c7c0
ccc0
ccc0
ccc0
ccc0
cdc0
c740
c000
6000
3f80
0000
0000
0000
0000
ENDCHAR
STARTCHAR A
ENCODING 65
SWIDTH 666 0
DWIDTH 12 0
BBX 12 20 0 -4
BITMAP
0000
0000
0c00
1e00
3300
6180
c0c0
c0c0
c0c0
c0c0
ffc0
c0c0
c0c0
c0c0
c0c0
c0c0
0000
0000
0000
0000
ENDCHAR
STARTCHAR B
ENCODING 66
SWIDTH 666 0
DWIDTH 12 0
BBX 12 20 0 -4
BITMAP
0000
0000
ff00
6180
60c0
60c0
60c0
6180
7f00
6180
60c0
60c0
60c0
60c0
6180
ff00
0000
0000
0000
0000
ENDCHAR
STARTCHAR C
ENCODING 67
SWIDTH 666 0
DWIDTH 12 0
BBX 12 20 0 -4
BITMAP
0000
0000
3f00
6180
c0c0
c000
c000
c000
c000
c000
c000
c000
c000
c0c0
6180
3f00
0000
0000
0000
0000
ENDCHAR
STARTCHAR D
ENCODING 68
SWIDTH 666 0
DWIDTH 12 0
BBX 12 20 0 -4
BITMAP
0000
0000
ff00
6180
60c0
60c0
60c0
60c0
60c0
60c0
60c0
60c0
60c0
60c0
6180
ff00
0000
0000
0000
0000
ENDCHAR
STARTCHAR E
ENCODING 69
SWIDTH 666 0
DWIDTH 12 0
BBX 12 20 0 -4
BITMAP
0000
0000
ffc0
c000
c000
c000
c000
c000
ff80
c000
c000
c000
c000
c000
c000
ffc0
0000
0000
0000
0000
ENDCHAR
STARTCHAR F
ENCODING 70
SWIDTH 666 0
DWIDTH 12 0
BBX 12 20 0 -4
BITMAP
0000
0000
ffc0
c000
c000
c000
c000
c000
ff80
c000
c000
c000
c000
c000
c000
c000
0000
0000
0000
0000
ENDCHAR
STARTCHAR G
ENCODING 71
SWIDTH 666 0
DWIDTH 12 0
BBX 12 20 0 -4
BITMAP
0000
0000
3f00
6180
c0c0
c000
c000
c000
c000
cfc0
c0c0
c0c0
c0c0
c0c0
60c0
3fc0
0000
0000
0000
0000
ENDCHAR
STARTCHAR H
ENCODING 72
SWIDTH 666 0
DWIDTH 12 0
BBX 12 20 0 -4
BITMAP
0000
0000
c0c0
c0c0
c0c0
c0c0
c0c0
c0c0
ffc0
c0c0
c0c0
c0c0
c0c0
c0c0
c0c0
c0c0
0000
0000
0000
0000
ENDCHAR
STARTCHAR I
ENCODING 73
SWIDTH 666 0
DWIDTH 12 0
BBX 12 20 0 -4
BITMAP
0000
0000
3f00
0c00
0c00
0c00
0c00
0c00
0c00
0c00
0c00
0c00
0c00
0c00
0c00
3f00
0000
0000
0000
0000
ENDCHAR
STARTCHAR J
ENCODING 74
SWIDTH 666 0
DWIDTH 12 0
BBX 12 20 0 -4
BITMAP
0000
0000
0180
0180
0180
0180
0180
0180
0180
0180
0180
0180
c180
c180
c300
7e00
0000
0000
0000
0000
ENDCHAR
STARTCHAR K
ENCODING 75
SWIDTH 666 0
DWIDTH 12 0
BBX 12 20 0 -4
BITMAP
0000
0000
c0c0
c180
c300
c600
cc00
d800
f000
f000
d800
cc00
c600
c300
c180
c0c0
0000
0000
0000
0000
ENDCHAR
STARTCHAR L
ENCODING 76
SWIDTH 666 0
DWIDTH 12 0
BBX 12 20 0 -4
BITMAP
0000
0000
c000
c000
c000
c000
c000
c000
c000
c000
c000
c000
c000
c000
c000
ffc0
0000
0000
0000
0000
ENDCHAR
STARTCHAR M
ENCODING 77
SWIDTH 666 0
DWIDTH 12 0
BBX 12 20 0 -4
BITMAP
0000
0000
c0c0
c0c0
e1c0
e1c0
f3c0
d2c0
dec0
ccc0
ccc0
c0c0
c0c0
c0c0
c0c0
c0c0
0000
0000
0000
0000
ENDCHAR
STARTCHAR N
ENCODING 78
SWIDTH 666 0
DWIDTH 12 0
BBX 12 20 0 -4
BITMAP
0000
0000
c180
e180
e180
f180
d180
d980
c980
cd80
c580
c780
c380
c380
c180
c180
0000
0000
0000
0000
ENDCHAR
STARTCHAR O
ENCODING 79
SWIDTH 666 0
DWIDTH 12 0
BBX 12 20 0 -4
BITMAP
0000
0000
3f00
6180
c0c0
c0c0
c0c0
c0c0
c0c0
c0c0
c0c0
c0c0
c0c0
c0c0
6180
3f00
0000
0000
0000
0000
ENDCHAR
STARTCHAR P
ENCODING 80
SWIDTH 666 0
DWIDTH 12 0
BBX 12 20 0 -4
BITMAP
0000
0000
ff00
c180
c0c0
c0c0
c0c0
c0c0
c180
ff00
c000
c000
c000
c000
c000
c000
0000
0000
0000
0000
ENDCHAR
STARTCHAR Q
ENCODING 81
SWIDTH 666 0
DWIDTH 12 0
BBX 12 20 0 -4
BITMAP
0000
0000
3f00
6180
c0c0
c0c0
c0c0
c0c0
c0c0
c0c0
c0c0
d8c0
ccc0
c6c0
6380
3f00
0180
00c0
0000
0000
ENDCHAR
STARTCHAR R
ENCODING 82
SWIDTH 666 0
DWIDTH 12 0
BBX 12 20 0 -4
BITMAP
0000
0000
ff00
c180
c0c0
c0c0
c0c0
c0c0
c180
ff00
c600
c300
c180
c180
c0c0
c0c0
0000
0000
0000
0000
ENDCHAR
STARTCHAR S
ENCODING 83
SWIDTH 666 0
DWIDTH 12 0
BBX 12 20 0 -4
BITMAP
0000
0000
3f00
6180
c0c0
c000
c000
6000
3f00
0180
00c0
00c0
00c0
c0c0
6180
3f00
0000
0000
0000
0000
ENDCHAR
STARTCHAR T
ENCODING 84
SWIDTH 666 0
DWIDTH 12 0
BBX 12 20 0 -4
BITMAP
0000
0000
ffc0
0c00
0c00
0c00
0c00
0c00
0c00
0c00
0c00
0c00
0c00
0c00
0c00
0c00
0000
0000
0000
0000
ENDCHAR
STARTCHAR U
ENCODING 85
SWIDTH 666 0
DWIDTH 12 0
BBX 12 20 0 -4
BITMAP
0000
0000
c0c0
c0c0
c0c0
c0c0
c0c0
c0c0
c0c0
c0c0
c0c0
c0c0
c0c0
c0c0
6180
3f00
0000
0000
0000
0000
ENDCHAR
STARTCHAR V
ENCODING 86
SWIDTH 666 0
DWIDTH 12 0
BBX 12 20 0 -4
BITMAP
0000
0000
c0c0
c0c0
c0c0
c0c0
c0c0
c0c0
6180
6180
3300
3300
1e00
1e00
0c00
0c00
0000
0000
0000
0000
ENDCHAR
STARTCHAR W
ENCODING 87
SWIDTH 666 0
DWIDTH 12 0
BBX 12 20 0 -4
BITMAP
0000
0000
c0c0
c0c0
c0c0
c0c0
c0c0
c0c0
ccc0
ccc0
dec0
dec0
f3c0
f3c0
e1c0
4080
0000
0000
0000
0000
ENDCHAR
STARTCHAR X
ENCODING 88
SWIDTH 666 0
DWIDTH 12 0
BBX 12 20 0 -4
BITMAP
0000
0000
60c0
60c0
3180
3180
1b00
1b00
0e00
0e00
1b00
1b00
3180
3180
60c0
60c0
0000
0000
0000
0000
ENDCHAR
STARTCHAR Y
ENCODING 89
SWIDTH 666 0
DWIDTH 12 0
BBX 12 20 0 -4
BITMAP
0000
0000
c0c0
6180
6180
3300
3300
1e00
1e00
0c00
0c00
0c00
0c00
0c00
0c00
0c00
0000
0000
0000
0000
ENDCHAR
STARTCHAR Z
ENCODING 90
SWIDTH 666 0
DWIDTH 12 0
BBX 12 20 0 -4
BITMAP
0000
0000
ffc0
00c0
00c0
0180
0300
0600
0c00
1800
3000
6000
c000
c000
c000
ffc0
0000
0000
0000
0000
ENDCHAR
STARTCHAR [
ENCODING 91
SWIDTH 666 0
DWIDTH 12 0
BBX 12 20 0 -4
BITMAP
0000
0000
1f00
1800
1800
1800
1800
1800
1800
1800
1800
1800
1800
1800
1800
1f00
0000
0000
0000
0000
ENDCHAR
STARTCHAR \
ENCODING 92
SWIDTH 666 0
DWIDTH 12 0
BBX 12 20 0 -4
BITMAP
0000
0000
6000
6000
3000
3000
1800
1800
0c00
0c00
0600
0600
0300
0300
0180
0180
0000
0000
0000
0000
ENDCHAR
STARTCHAR ]
ENCODING 93
SWIDTH 666 0
DWIDTH 12 0
BBX 12 20 0 -4
BITMAP
0000
0000
3e00
0600
0600
0600
0600
0600
0600
0600
0600
0600
0600
0600
0600
3e00
0000
0000
0000
0000
ENDCHAR
STARTCHAR ^
ENCODING 94
SWIDTH 666 0
DWIDTH 12 0
BBX 12 20 0 -4
BITMAP
0000
0000
0c00
1e00
3300
6180
c0c0
0000
0000
0000
0000
0000
0000
0000
0000
0000
0000
0000
0000
0000
ENDCHAR
STARTCHAR _
ENCODING 95
SWIDTH 666 0
DWIDTH 12 0
BBX 12 20 0 -4
BITMAP
0000
0000
0000
0000
0000
0000
0000
0000
0000
0000
0000
0000
0000
0000
0000
0000
ffc0
ffc0
0000
0000
ENDCHAR
STARTCHAR `
ENCODING 96
SWIDTH 666 0
DWIDTH 12 0
BBX 12 20 0 -4
BITMAP
0000
0000
1c00
1c00
1c00
0c00
0600
0200
0000
0000
0000
0000
0000
0000
0000
0000
0000
0000
0000
0000
ENDCHAR
STARTCHAR a
ENCODING 97
SWIDTH 666 0
DWIDTH 12 0
BBX 12 20 0 -4
BITMAP
0000
0000
0000
0000
0000
0000
7f00
c180
0180
0180
7f80
c180
c180
c180
c180
7fc0
0000
0000
0000
0000
ENDCHAR
STARTCHAR b
ENCODING 98
SWIDTH 666 0
DWIDTH 12 0
BBX 12 20 0 -4
BITMAP
0000
0000
c000
c000
c000
c000
df00
e180
c0c0
c0c0
c0c0
c0c0
c0c0
c0c0
e180
df00
0000
0000
0000
0000
ENDCHAR
STARTCHAR c
ENCODING 99
SWIDTH 666 0
DWIDTH 12 0
BBX 12 20 0 -4
BITMAP
0000
0000
0000
0000
0000
0000
3f00
6180
c0c0
c000
c000
c000
c000
c0c0
6180
3f00
0000
0000
0000
0000
ENDCHAR
STARTCHAR d
ENCODING 100
SWIDTH 666 0
DWIDTH 12 0
BBX 12 20 0 -4
BITMAP
0000
0000
00c0
00c0
00c0
00c0
3ec0
61c0
c0c0
c0c0
c0c0
c0c0
c0c0
c0c0
61c0
3ec0
0000
0000
0000
0000
ENDCHAR
STARTCHAR e
ENCODING 101
SWIDTH 666 0
DWIDTH 12 0
BBX 12 20 0 -4
BITMAP
0000
0000
0000
0000
0000
0000
3f00
6180
c0c0
c0c0
ffc0
c000
c000
c000
60c0
3f80
0000
0000
0000
0000
ENDCHAR
STARTCHAR f
ENCODING 102
SWIDTH 666 0
DWIDTH 12 0
BBX 12 20 0 -4
BITMAP
0000
0000
0f80
18c0
1800
1800
1800
ff00
1800
1800
1800
1800
1800
1800
1800
1800
0000
0000
0000
0000
ENDCHAR
STARTCHAR g
ENCODING 103
SWIDTH 666 0
DWIDTH 12 0
BBX 12 20 0 -4
BITMAP
0000
0000
0000
0000
0000
0000
3ec0
61c0
c0c0
c0c0
c0c0
c0c0
c0c0
61c0
3ec0
00c0
00c0
c180
7f00
0000
ENDCHAR
STARTCHAR h
ENCODING 104
SWIDTH 666 0
DWIDTH 12 0
BBX 12 20 0 -4
BITMAP
0000
0000
c000
c000
c000
c000
df00
e180
c0c0
c0c0
c0c0
c0c0
c0c0
c0c0
c0c0
c0c0
0000
0000
0000
0000
ENDCHAR
STARTCHAR i
ENCODING 105
SWIDTH 666 0
DWIDTH 12 0
BBX 12 20 0 -4
BITMAP
0000
0000
0c00
0c00
0000
0000
3c00
0c00
0c00
0c00
0c00
0c00
0c00
0c00
0c00
3f00
0000
0000
0000
0000
ENDCHAR
STARTCHAR j
ENCODING 106
SWIDTH 666 0
DWIDTH 12 0
BBX 12 20 0 -4
BITMAP
0000
0000
0300
0300
0000
0000
0f00
0300
0300
0300
0300
0300
0300
0300
0300
0300
6300
6300
3e00
0000
ENDCHAR
STARTCHAR k
ENCODING 107
SWIDTH 666 0
DWIDTH 12 0
BBX 12 20 0 -4
BITMAP
0000
0000
c000
c000
c000
c180
c300
c600
cc00
d800
f800
cc00
c600
c300
c180
c0c0
0000
0000
0000
0000
ENDCHAR
STARTCHAR l
ENCODING 108
SWIDTH 666 0
DWIDTH 12 0
BBX 12 20 0 -4
BITMAP
0000
0000
3c00
0c00
0c00
0c00
0c00
0c00
0c00
0c00
0c00
0c00
0c00
0c00
0c00
3f00
0000
0000
0000
0000
ENDCHAR
STARTCHAR m
ENCODING 109
SWIDTH 666 0
DWIDTH 12 0
BBX 12 20 0 -4
BITMAP
0000
0000
0000
0000
0000
0000
dd80
ffc0
ccc0
ccc0
ccc0
ccc0
ccc0
ccc0
ccc0
ccc0
0000
0000
0000
0000
ENDCHAR
STARTCHAR n
ENCODING 110
SWIDTH 666 0
DWIDTH 12 0
BBX 12 20 0 -4
BITMAP
0000
0000
0000
0000
0000
0000
df00
e180
c0c0
c0c0
c0c0
c0c0
c0c0
c0c0
c0c0
c0c0
0000
0000
0000
0000
ENDCHAR
STARTCHAR o
ENCODING 111
SWIDTH 666 0
DWIDTH 12 0
BBX 12 20 0 -4
BITMAP
0000
0000
0000
0000
0000
0000
3f00
6180
c0c0
c0c0
c0c0
c0c0
c0c0
c0c0
6180
3f00
0000
0000
0000
0000
ENDCHAR
STARTCHAR p
ENCODING 112
SWIDTH 666 0
DWIDTH 12 0
BBX 12 20 0 -4
BITMAP
0000
0000
0000
0000
0000
0000
df00
e180
c0c0
c0c0
c0c0
c0c0
c0c0
c0c0
e180
df00
c000
c000
c000
0000
ENDCHAR
STARTCHAR q
ENCODING 113
SWIDTH 666 0
DWIDTH 12 0
BBX 12 20 0 -4
BITMAP
0000
0000
0000
0000
0000
0000
3ec0
61c0
c0c0
c0c0
c0c0
c0c0
c0c0
c0c0
61c0
3ec0
00c0
00c0
00c0
0000
ENDCHAR
STARTCHAR r
ENCODING 114
SWIDTH 666 0
DWIDTH 12 0
BBX 12 20 0 -4
BITMAP
0000
0000
0000
0000
0000
0000
df80
e0c0
c040
c000
c000
c000
c000
c000
c000
c000
0000
0000
0000
0000
ENDCHAR
STARTCHAR s
ENCODING 115
SWIDTH 666 0
DWIDTH 12 0
BBX 12 20 0 -4
BITMAP
0000
0000
0000
0000
0000
0000
7f80
c0c0
c000
c000
7f80
00c0
00c0
00c0
c0c0
7f80
0000
0000
0000
0000
ENDCHAR
STARTCHAR t
ENCODING 116
SWIDTH 666 0
DWIDTH 12 0
BBX 12 20 0 -4
BITMAP
0000
0000
0000
1800
1800
1800
ff00
1800
1800
1800
1800
1800
1800
1800
18c0
0f80
0000
0000
0000
0000
ENDCHAR
STARTCHAR u
ENCODING 117
SWIDTH 666 0
DWIDTH 12 0
BBX 12 20 0 -4
BITMAP
0000
0000
0000
0000
0000
0000
c0c0
c0c0
c0c0
c0c0
c0c0
c0c0
c0c0
c0c0
61c0
3ec0
0000
0000
0000
0000
ENDCHAR
STARTCHAR v
ENCODING 118
SWIDTH 666 0
DWIDTH 12 0
BBX 12 20 0 -4
BITMAP
0000
0000
0000
0000
0000
0000
c0c0
c0c0
6180
6180
3300
3300
1e00
1e00
0c00
0c00
0000
0000
0000
0000
ENDCHAR
STARTCHAR w
ENCODING 119
SWIDTH 666 0
DWIDTH 12 0
BBX 12 20 0 -4
BITMAP
0000
0000
0000
0000
0000
0000
c0c0
c0c0
c0c0
c0c0
ccc0
ccc0
dec0
f3c0
e1c0
4080
0000
0000
0000
0000
ENDCHAR
STARTCHAR x
ENCODING 120
SWIDTH 666 0
DWIDTH 12 0
BBX 12 20 0 -4
BITMAP
0000
0000
0000
0000
0000
0000
c0c0
6180
3300
1e00
0c00
0c00
1e00
3300
6180
c0c0
0000
0000
0000
0000
ENDCHAR
STARTCHAR y
ENCODING 121
SWIDTH 666 0
DWIDTH 12 0
BBX 12 20 0 -4
BITMAP
0000
0000
0000
0000
0000
0000
c0c0
c0c0
6180
6180
3300
3300
1e00
1e00
0c00
0c00
1800
3000
e000
0000
ENDCHAR
STARTCHAR z
ENCODING 122
SWIDTH 666 0
DWIDTH 12 0
BBX 12 20 0 -4
BITMAP
0000
0000
0000
0000
0000
0000
ffc0
0180
0300
0600
0c00
1800
3000
6000
c000
ffc0
0000
0000
0000
0000
ENDCHAR
STARTCHAR {
ENCODING 123
SWIDTH 666 0
DWIDTH 12 0
BBX 12 20 0 -4
BITMAP
0000
0000
0700
0c00
0c00
0c00
0c00
0c00
1800
7000
1800
0c00
0c00
0c00
0c00
0c00
0700
0000
0000
0000
ENDCHAR
STARTCHAR |
ENCODING 124
SWIDTH 666 0
DWIDTH 12 0
BBX 12 20 0 -4
BITMAP
0000
0000
0c00
0c00
0c00
0c00
0c00
0c00
0c00
0000
0000
0c00
0c00
0c00
0c00
0c00
0c00
0c00
0000
0000
ENDCHAR
STARTCHAR }
ENCODING 125
SWIDTH 666 0
DWIDTH 12 0
BBX 12 20 0 -4
BITMAP
0000
0000
3800
0c00
0c00
0c00
0c00
0c00
0600
0380
0600
0c00
0c00
0c00
0c00
0c00
3800
0000
0000
0000
ENDCHAR
STARTCHAR ~
ENCODING 126
SWIDTH 666 0
DWIDTH 12 0
BBX 12 20 0 -4
BITMAP
0000
0000
3800
7c40
47c0
0380
0000
0000
0000
0000
0000
0000
0000
0000
0000
0000
0000
0000
0000
0000
ENDCHAR
STARTCHAR delta
ENCODING 127
SWIDTH 666 0
DWIDTH 12 0
BBX 12 20 0 -4
BITMAP
0000
0000
0000
0000
0c00
1e00
3300
6180
c0c0
c0c0
c0c0
c0c0
ffc0
ffc0
0000
0000
0000
0000
0000
0000
ENDCHAR
STARTCHAR C-cedilla
ENCODING 128
SWIDTH 666 0
DWIDTH 12 0
BBX 12 20 0 -4
BITMAP
0000
0000
3f00
6180
c0c0
c000
c000
c000
c000
c000
c000
c000
c000
c0c0
6180
3f00
0600
0c00
3800
0000
ENDCHAR
STARTCHAR u-umlaut
ENCODING 129
SWIDTH 666 0
DWIDTH 12 0
BBX 12 20 0 -4
BITMAP
0000
0000
6180
6180
0000
0000
c0c0
c0c0
c0c0
c0c0
c0c0
c0c0
c0c0
c0c0
61c0
3ec0
0000
0000
0000
0000
ENDCHAR
STARTCHAR e-acute
ENCODING 130
SWIDTH 666 0
DWIDTH 12 0
BBX 12 20 0 -4
BITMAP
0300
0600
0c00
1800
0000
0000
3f00
6180
c0c0
c0c0
ffc0
c000
c000
c000
60c0
3f80
0000
0000
0000
0000
ENDCHAR
STARTCHAR a-circumflex
ENCODING 131
SWIDTH 666 0
DWIDTH 12 0
BBX 12 20 0 -4
BITMAP
0c00
1e00
3300
6180
0000
0000
7f00
c180
0180
0180
7f80
c180
c180
c180
c180
7fc0
0000
0000
0000
0000
ENDCHAR
STARTCHAR a-umlaut
ENCODING 132
SWIDTH 666 0
DWIDTH 12 0
BBX 12 20 0 -4
BITMAP
0000
0000
6180
6180
0000
0000
7f00
c180
0180
0180
7f80
c180
c180
c180
c180
7fc0
0000
0000
0000
0000
ENDCHAR
STARTCHAR a-grave
ENCODING 133
SWIDTH 666 0
DWIDTH 12 0
BBX 12 20 0 -4
BITMAP
3000
1800
0c00
0600
0000
0000
7f00
c180
0180
0180
7f80
c180
c180
c180
c180
7fc0
0000
0000
0000
0000
ENDCHAR
STARTCHAR a-circle
ENCODING 134
SWIDTH 666 0
DWIDTH 12 0
BBX 12 20 0 -4
BITMAP
1e00
3300
3300
1e00
0000
0000
7f00
c180
0180
0180
7f80
c180
c180
c180
c180
7fc0
0000
0000
0000
0000
ENDCHAR
STARTCHAR c-cedilla
ENCODING 135
SWIDTH 666 0
DWIDTH 12 0
BBX 12 20 0 -4
BITMAP
0000
0000
0000
0000
0000
0000
3f00
6180
c0c0
c000
c000
c000
c000
c0c0
6180
3f00
0600
0c00
3800
0000
ENDCHAR
STARTCHAR e-circumflex
ENCODING 136
SWIDTH 666 0
DWIDTH 12 0
BBX 12 20 0 -4
BITMAP
0c00
1e00
3300
6180
0000
0000
3f00
6180
c0c0
c0c0
ffc0
c000
c000
c000
60c0
3f80
0000
0000
0000
0000
ENDCHAR
STARTCHAR e-umlaut
ENCODING 137
SWIDTH 666 0
DWIDTH 12 0
BBX 12 20 0 -4
BITMAP
0000
0000
6180
6180
0000
0000
3f00
6180
c0c0
c0c0
ffc0
c000
c000
c000
60c0
3f80
0000
0000
0000
0000
ENDCHAR
STARTCHAR e-grave
ENCODING 138
SWIDTH 666 0
DWIDTH 12 0
BBX 12 20 0 -4
BITMAP
3000
1800
0c00
0600
0000
0000
3f00
6180
c0c0
c0c0
ffc0
c000
c000
c000
60c0
3f80
0000
0000
0000
0000
ENDCHAR
STARTCHAR i-umlaut
ENCODING 139
SWIDTH 666 0
DWIDTH 12 0
BBX 12 20 0 -4
BITMAP
0000
0000
6180
6180
0000
0000
3c00
0c00
0c00
0c00
0c00
0c00
0c00
0c00
0c00
3f00
0000
0000
0000
0000
ENDCHAR
STARTCHAR i-circumflex
ENCODING 140
SWIDTH 666 0
DWIDTH 12 0
BBX 12 20 0 -4
BITMAP
0c00
1e00
3300
6180
0000
0000
3c00
0c00
0c00
0c00
0c00
0c00
0c00
0c00
0c00
3f00
0000
0000
0000
0000
ENDCHAR
STARTCHAR i-grave
ENCODING 141
SWIDTH 666 0
DWIDTH 12 0
BBX 12 20 0 -4
BITMAP
6000
3000
1800
0c00
0000
0000
3c00
0c00
0c00
0c00
0c00
0c00
0c00
0c00
0c00
3f00
0000
0000
0000
0000
ENDCHAR
STARTCHAR A-umlaut
ENCODING 142
SWIDTH 666 0
DWIDTH 12 0
BBX 12 20 0 -4
BITMAP
6180
6180
0000
0c00
1e00
3300
6180
c0c0
c0c0
c0c0
ffc0
c0c0
c0c0
c0c0
c0c0
c0c0
0000
0000
0000
0000
ENDCHAR
STARTCHAR A-circle
ENCODING 143
SWIDTH 666 0
DWIDTH 12 0
BBX 12 20 0 -4
BITMAP
1e00
3300
3300
1e00
1e00
3300
6180
c0c0
c0c0
c0c0
ffc0
c0c0
c0c0
c0c0
c0c0
c0c0
0000
0000
0000
0000
ENDCHAR
STARTCHAR E-acute
ENCODING 144
SWIDTH 666 0
DWIDTH 12 0
BBX 12 20 0 -4
BITMAP
0300
0600
0c00
1800
ffc0
c000
c000
c000
c000
ff80
c000
c000
c000
c000
c000
ffc0
0000
0000
0000
0000
ENDCHAR
STARTCHAR ae
ENCODING 145
SWIDTH 666 0
DWIDTH 12 0
BBX 12 20 0 -4
BITMAP
0000
0000
0000
0000
0000
0000
7b80
0cc0
0cc0
0cc0
7fc0
cc00
cc00
cc00
cc00
7bc0
0000
0000
0000
0000
ENDCHAR
STARTCHAR AE
ENCODING 146
SWIDTH 666 0
DWIDTH 12 0
BBX 12 20 0 -4
BITMAP
0000
0000
1fc0
3c00
6c00
cc00
cc00
cc00
cfc0
fc00
cc00
cc00
cc00
cc00
cc00
cfc0
0000
0000
0000
0000
ENDCHAR
STARTCHAR o-circumflex
ENCODING 147
SWIDTH 666 0
DWIDTH 12 0
BBX 12 20 0 -4
BITMAP
0c00
1e00
3300
6180
0000
0000
3f00
6180
c0c0
c0c0
c0c0
c0c0
c0c0
c0c0
6180
3f00
0000
0000
0000
0000
ENDCHAR
STARTCHAR o-umlaut
ENCODING 148
SWIDTH 666 0
DWIDTH 12 0
BBX 12 20 0 -4
BITMAP
0000
0000
6180
6180
0000
0000
3f00
6180
c0c0
c0c0
c0c0
c0c0
c0c0
c0c0
6180
3f00
0000
0000
0000
0000
ENDCHAR
STARTCHAR o-grave
ENCODING 149
SWIDTH 666 0
DWIDTH 12 0
BBX 12 20 0 -4
BITMAP
3000
1800
0c00
0600
0000
0000
3f00
6180
c0c0
c0c0
c0c0
c0c0
c0c0
c0c0
6180
3f00
0000
0000
0000
0000
ENDCHAR
STARTCHAR u-circumflex
ENCODING 150
SWIDTH 666 0
DWIDTH 12 0
BBX 12 20 0 -4
BITMAP
0c00
1e00
3300
6180
0000
0000
c0c0
c0c0
c0c0
c0c0
c0c0
c0c0
c0c0
c0c0
61c0
3ec0
0000
0000
0000
0000
ENDCHAR
STARTCHAR u-grave
ENCODING 151
SWIDTH 666 0
DWIDTH 12 0
BBX 12 20 0 -4
BITMAP
3000
1800
0c00
0600
0000
0000
c0c0
c0c0
c0c0
c0c0
c0c0
c0c0
c0c0
c0c0
61c0
3ec0
0000
0000
0000
0000
ENDCHAR
STARTCHAR y-umlaut
ENCODING 152
SWIDTH 666 0
DWIDTH 12 0
BBX 12 20 0 -4
BITMAP
0000
0000
6180
6180
0000
0000
c0c0
c0c0
6180
6180
3300
3300
1e00
1e00
0c00
0c00
1800
3000
e000
0000
ENDCHAR
STARTCHAR O-umlaut
ENCODING 153
SWIDTH 666 0
DWIDTH 12 0
BBX 12 20 0 -4
BITMAP
6180
6180
0000
3f00
6180
c0c0
c0c0
c0c0
c0c0
c0c0
c0c0
c0c0
c0c0
c0c0
6180
3f00
0000
0000
0000
0000
ENDCHAR
STARTCHAR U-umlaut
ENCODING 154
SWIDTH 666 0
DWIDTH 12 0
BBX 12 20 0 -4
BITMAP
6180
6180
0000
c0c0
c0c0
c0c0
c0c0
c0c0
c0c0
c0c0
c0c0
c0c0
c0c0
c0c0
6180
3f00
0000
0000
0000
0000
ENDCHAR
STARTCHAR cents
ENCODING 155
SWIDTH 666 0
DWIDTH 12 0
BBX 12 20 0 -4
BITMAP
0000
0000
0c00
0c00
0c00
7f80
ccc0
cc00
cc00
cc00
cc00
ccc0
7f80
0c00
0c00
0c00
0000
0000
0000
0000
ENDCHAR
STARTCHAR pounds
ENCODING 156
SWIDTH 666 0
DWIDTH 12 0
BBX 12 20 0 -4
BITMAP
0000
0f00
1980
1880
1800
1800
1800
7f00
1800
1800
1800
1800
7800
fc00
e6c0
c380
0000
0000
0000
0000
ENDCHAR
STARTCHAR y-dbl_hash
ENCODING 157
SWIDTH 666 0
DWIDTH 12 0
BBX 12 20 0 -4
BITMAP
0000
0000
c0c0
6180
6180
3300
3300
1e00
7f80
7f80
0c00
7f80
7f80
0c00
0c00
0c00
0000
0000
0000
0000
ENDCHAR
STARTCHAR Pt
ENCODING 158
SWIDTH 666 0
DWIDTH 12 0
BBX 12 20 0 -4
BITMAP
0000
0000
ff80
c0c0
c0c0
c0c0
c0c0
ff80
c000
c000
c300
c300
cfc0
c300
c300
c300
0300
01c0
0000
0000
ENDCHAR
STARTCHAR fancy_f
ENCODING 159
SWIDTH 666 0
DWIDTH 12 0
BBX 12 20 0 -4
BITMAP
0000
0000
0600
0f00
0d80
0c00
0c00
0c00
7f80
0c00
0c00
0c00
0c00
0c00
0c00
6c00
3c00
1800
0000
0000
ENDCHAR
STARTCHAR a-acute
ENCODING 160
SWIDTH 666 0
DWIDTH 12 0
BBX 12 20 0 -4
BITMAP
0600
0c00
1800
3000
0000
0000
7f00
c180
0180
0180
7f80
c180
c180
c180
c180
7fc0
0000
0000
0000
0000
ENDCHAR
STARTCHAR i-acute
ENCODING 161
SWIDTH 666 0
DWIDTH 12 0
BBX 12 20 0 -4
BITMAP
0300
0600
0c00
1800
0000
0000
3c00
0c00
0c00
0c00
0c00
0c00
0c00
0c00
0c00
3f00
0000
0000
0000
0000
ENDCHAR
STARTCHAR o-acute
ENCODING 162
SWIDTH 666 0
DWIDTH 12 0
BBX 12 20 0 -4
BITMAP
0300
0600
0c00
1800
0000
0000
3f00
6180
c0c0
c0c0
c0c0
c0c0
c0c0
c0c0
6180
3f00
0000
0000
0000
0000
ENDCHAR
STARTCHAR u-acute
ENCODING 163
SWIDTH 666 0
DWIDTH 12 0
BBX 12 20 0 -4
BITMAP
0300
0600
0c00
1800
0000
0000
c0c0
c0c0
c0c0
c0c0
c0c0
c0c0
c0c0
c0c0
61c0
3ec0
0000
0000
0000
0000
ENDCHAR
STARTCHAR n-tilde
ENCODING 164
SWIDTH 666 0
DWIDTH 12 0
BBX 12 20 0 -4
BITMAP
0000
3880
7f80
4700
0000
0000
df00
e180
c0c0
c0c0
c0c0
c0c0
c0c0
c0c0
c0c0
c0c0
0000
0000
0000
0000
ENDCHAR
STARTCHAR N-tilde
ENCODING 165
SWIDTH 666 0
DWIDTH 12 0
BBX 12 20 0 -4
BITMAP
1c40
3fc0
2380
60c0
70c0
70c0
78c0
68c0
6cc0
64c0
66c0
62c0
63c0
61c0
61c0
60c0
0000
0000
0000
0000
ENDCHAR
STARTCHAR a-super
ENCODING 166
SWIDTH 666 0
DWIDTH 12 0
BBX 12 20 0 -4
BITMAP
0000
0000
7f00
c180
0180
7f80
c180
c180
c180
7fc0
0000
0000
ffc0
ffc0
0000
0000
0000
0000
0000
0000
ENDCHAR
STARTCHAR o-super
ENCODING 167
SWIDTH 666 0
DWIDTH 12 0
BBX 12 20 0 -4
BITMAP
0000
0000
3f00
6180
c0c0
c0c0
c0c0
c0c0
6180
3f00
0000
0000
ffc0
ffc0
0000
0000
0000
0000
0000
0000
ENDCHAR
STARTCHAR inverted-?
ENCODING 168
SWIDTH 666 0
DWIDTH 12 0
BBX 12 20 0 -4
BITMAP
0000
0000
0000
0000
0c00
0c00
0000
0000
0c00
0c00
0c00
1800
3000
6000
6000
6180
6180
3f00
0000
0000
ENDCHAR
STARTCHAR ll_angle
ENCODING 169
SWIDTH 666 0
DWIDTH 12 0
BBX 12 20 0 -4
BITMAP
0000
0000
0000
0000
0000
0000
0000
0000
ffc0
ffc0
c000
c000
c000
c000
0000
0000
0000
0000
0000
0000
ENDCHAR
STARTCHAR lr_angle
ENCODING 170
SWIDTH 666 0
DWIDTH 12 0
BBX 12 20 0 -4
BITMAP
0000
0000
0000
0000
0000
0000
0000
0000
ffc0
ffc0
00c0
00c0
00c0
00c0
0000
0000
0000
0000
0000
0000
ENDCHAR
STARTCHAR 1/2
ENCODING 171
SWIDTH 666 0
DWIDTH 12 0
BBX 12 20 0 -4
BITMAP
0000
0000
3000
7000
f000
30c0
3180
3300
3600
0c00
1b80
36c0
64c0
c0c0
0180
0300
0600
07c0
0000
0000
ENDCHAR
STARTCHAR 1/4
ENCODING 172
SWIDTH 666 0
DWIDTH 12 0
BBX 12 20 0 -4
BITMAP
0000
0000
3000
7000
f000
30c0
3180
3300
3600
0c00
1980
3380
6780
cd80
1980
1fc0
0180
0180
0000
0000
ENDCHAR
STARTCHAR inverted-!
ENCODING 173
SWIDTH 666 0
DWIDTH 12 0
BBX 12 20 0 -4
BITMAP
0000
0000
0000
0000
0c00
0c00
0000
0000
0c00
0c00
0c00
0c00
0c00
0c00
0c00
0c00
0c00
0c00
0000
0000
ENDCHAR
STARTCHAR french_lquote
ENCODING 174
SWIDTH 666 0
DWIDTH 12 0
BBX 12 20 0 -4
BITMAP
0000
0000
0000
0000
0cc0
1980
3300
6600
cc00
6600
3300
1980
0cc0
0000
0000
0000
0000
0000
0000
0000
ENDCHAR
STARTCHAR french_rquote
ENCODING 175
SWIDTH 666 0
DWIDTH 12 0
BBX 12 20 0 -4
BITMAP
0000
0000
0000
0000
cc00
6600
3300
1980
0cc0
1980
3300
6600
cc00
0000
0000
0000
0000
0000
0000
0000
ENDCHAR
STARTCHAR gray1
ENCODING 176
SWIDTH 666 0
DWIDTH 12 0
BBX 12 20 0 -4
BITMAP
0c00
0c00
c0c0
c0c0
0c00
0c00
c0c0
c0c0
0c00
0c00
c0c0
c0c0
0c00
0c00
c0c0
c0c0
0c00
0c00
c0c0
c0c0
ENDCHAR
STARTCHAR gray2
ENCODING 177
SWIDTH 666 0
DWIDTH 12 0
BBX 12 20 0 -4
BITMAP
3330
3330
ccc0
ccc0
3330
3330
ccc0
ccc0
3330
3330
ccc0
ccc0
3330
3330
ccc0
ccc0
3330
3330
ccc0
ccc0
ENDCHAR
STARTCHAR gray3
ENCODING 178
SWIDTH 666 0
DWIDTH 12 0
BBX 12 20 0 -4
BITMAP
f3f0
f3f0
3f30
3f30
f3f0
f3f0
3f30
3f30
f3f0
f3f0
3f30
3f30
f3f0
f3f0
3f30
3f30
f3f0
f3f0
3f30
3f30
ENDCHAR
STARTCHAR v_edge
ENCODING 179
SWIDTH 666 0
DWIDTH 12 0
BBX 12 20 0 -4
BITMAP
0c00
0c00
0c00
0c00
0c00
0c00
0c00
0c00
0c00
0c00
0c00
0c00
0c00
0c00
0c00
0c00
0c00
0c00
0c00
0c00
ENDCHAR
STARTCHAR left_tee
ENCODING 180
SWIDTH 666 0
DWIDTH 12 0
BBX 12 20 0 -4
BITMAP
0c00
0c00
0c00
0c00
0c00
0c00
0c00
0c00
fc00
fc00
0c00
0c00
0c00
0c00
0c00
0c00
0c00
0c00
0c00
0c00
ENDCHAR
STARTCHAR left2_tee
ENCODING 181
SWIDTH 666 0
DWIDTH 12 0
BBX 12 20 0 -4
BITMAP
0c00
0c00
0c00
0c00
0c00
0c00
fc00
fc00
0c00
0c00
fc00
fc00
0c00
0c00
0c00
0c00
0c00
0c00
0c00
0c00
ENDCHAR
STARTCHAR left_tee2
ENCODING 182
SWIDTH 666 0
DWIDTH 12 0
BBX 12 20 0 -4
BITMAP
3300
3300
3300
3300
3300
3300
3300
3300
f300
f300
3300
3300
3300
3300
3300
3300
3300
3300
3300
3300
ENDCHAR
STARTCHAR ur2_corner
ENCODING 183
SWIDTH 666 0
DWIDTH 12 0
BBX 12 20 0 -4
BITMAP
0000
0000
0000
0000
0000
0000
0000
0000
ff00
ff00
3300
3300
3300
3300
3300
3300
3300
3300
3300
3300
ENDCHAR
STARTCHAR u2r_corner
ENCODING 184
SWIDTH 666 0
DWIDTH 12 0
BBX 12 20 0 -4
BITMAP
0000
0000
0000
0000
0000
0000
fc00
fc00
0c00
0c00
fc00
fc00
0c00
0c00
0c00
0c00
0c00
0c00
0c00
0c00
ENDCHAR
STARTCHAR left2_tee2
ENCODING 185
SWIDTH 666 0
DWIDTH 12 0
BBX 12 20 0 -4
BITMAP
3300
3300
3300
3300
3300
3300
f300
f300
0300
0300
f300
f300
3300
3300
3300
3300
3300
3300
3300
3300
ENDCHAR
STARTCHAR v_edge2
ENCODING 186
SWIDTH 666 0
DWIDTH 12 0
BBX 12 20 0 -4
BITMAP
3300
3300
3300
3300
3300
3300
3300
3300
3300
3300
3300
3300
3300
3300
3300
3300
3300
3300
3300
3300
ENDCHAR
STARTCHAR ur_corner2
ENCODING 187
SWIDTH 666 0
DWIDTH 12 0
BBX 12 20 0 -4
BITMAP
0000
0000
0000
0000
0000
0000
ff00
ff00
0300
0300
f300
f300
3300
3300
3300
3300
3300
3300
3300
3300
ENDCHAR
STARTCHAR lr_corner2
ENCODING 188
SWIDTH 666 0
DWIDTH 12 0
BBX 12 20 0 -4
BITMAP
3300
3300
3300
3300
3300
3300
f300
f300
0300
0300
ff00
ff00
0000
0000
0000
0000
0000
0000
0000
0000
ENDCHAR
STARTCHAR lr2_corner
ENCODING 189
SWIDTH 666 0
DWIDTH 12 0
BBX 12 20 0 -4
BITMAP
3300
3300
3300
3300
3300
3300
3300
3300
ff00
ff00
0000
0000
0000
0000
0000
0000
0000
0000
0000
0000
ENDCHAR
STARTCHAR l2r_corner
ENCODING 190
SWIDTH 666 0
DWIDTH 12 0
BBX 12 20 0 -4
BITMAP
0c00
0c00
0c00
0c00
0c00
0c00
fc00
fc00
0c00
0c00
fc00
fc00
0000
0000
0000
0000
0000
0000
0000
0000
ENDCHAR
STARTCHAR ur_corner
ENCODING 191
SWIDTH 666 0
DWIDTH 12 0
BBX 12 20 0 -4
BITMAP
0000
0000
0000
0000
0000
0000
0000
0000
fc00
fc00
0c00
0c00
0c00
0c00
0c00
0c00
0c00
0c00
0c00
0c00
ENDCHAR
STARTCHAR ll_corner
ENCODING 192
SWIDTH 666 0
DWIDTH 12 0
BBX 12 20 0 -4
BITMAP
0c00
0c00
0c00
0c00
0c00
0c00
0c00
0c00
0ff0
0ff0
0000
0000
0000
0000
0000
0000
0000
0000
0000
0000
ENDCHAR
STARTCHAR up_tee
ENCODING 193
SWIDTH 666 0
DWIDTH 12 0
BBX 12 20 0 -4
BITMAP
0c00
0c00
0c00
0c00
0c00
0c00
0c00
0c00
fff0
fff0
0000
0000
0000
0000
0000
0000
0000
0000
0000
0000
ENDCHAR
STARTCHAR down_tee
ENCODING 194
SWIDTH 666 0
DWIDTH 12 0
BBX 12 20 0 -4
BITMAP
0000
0000
0000
0000
0000
0000
0000
0000
fff0
fff0
0c00
0c00
0c00
0c00
0c00
0c00
0c00
0c00
0c00
0c00
ENDCHAR
STARTCHAR right_tee
ENCODING 195
SWIDTH 666 0
DWIDTH 12 0
BBX 12 20 0 -4
BITMAP
0c00
0c00
0c00
0c00
0c00
0c00
0c00
0c00
0ff0
0ff0
0c00
0c00
0c00
0c00
0c00
0c00
0c00
0c00
0c00
0c00
ENDCHAR
STARTCHAR h_edge
ENCODING 196
SWIDTH 666 0
DWIDTH 12 0
BBX 12 20 0 -4
BITMAP
0000
0000
0000
0000
0000
0000
0000
0000
fff0
fff0
0000
0000
0000
0000
0000
0000
0000
0000
0000
0000
ENDCHAR
STARTCHAR intersect
ENCODING 197
SWIDTH 666 0
DWIDTH 12 0
BBX 12 20 0 -4
BITMAP
0c00
0c00
0c00
0c00
0c00
0c00
0c00
0c00
fff0
fff0
0c00
0c00
0c00
0c00
0c00
0c00
0c00
0c00
0c00
0c00
ENDCHAR
STARTCHAR right2_tee
ENCODING 198
SWIDTH 666 0
DWIDTH 12 0
BBX 12 20 0 -4
BITMAP
0c00
0c00
0c00
0c00
0c00
0c00
0ff0
0ff0
0c00
0c00
0ff0
0ff0
0c00
0c00
0c00
0c00
0c00
0c00
0c00
0c00
ENDCHAR
STARTCHAR right_tee2
ENCODING 199
SWIDTH 666 0
DWIDTH 12 0
BBX 12 20 0 -4
BITMAP
3300
3300
3300
3300
3300
3300
3300
3300
33f0
33f0
3300
3300
3300
3300
3300
3300
3300
3300
3300
3300
ENDCHAR
STARTCHAR ll_corner2
ENCODING 200
SWIDTH 666 0
DWIDTH 12 0
BBX 12 20 0 -4
BITMAP
3300
3300
3300
3300
3300
3300
33f0
33f0
3000
3000
3ff0
3ff0
0000
0000
0000
0000
0000
0000
0000
0000
ENDCHAR
STARTCHAR ul_corner2
ENCODING 201
SWIDTH 666 0
DWIDTH 12 0
BBX 12 20 0 -4
BITMAP
0000
0000
0000
0000
0000
0000
3ff0
3ff0
3000
3000
33f0
33f0
3300
3300
3300
3300
3300
3300
3300
3300
ENDCHAR
STARTCHAR up_tee2
ENCODING 202
SWIDTH 666 0
DWIDTH 12 0
BBX 12 20 0 -4
BITMAP
3300
3300
3300
3300
3300
3300
f3f0
f3f0
0000
0000
fff0
fff0
0000
0000
0000
0000
0000
0000
0000
0000
ENDCHAR
STARTCHAR down_tee2
ENCODING 203
SWIDTH 666 0
DWIDTH 12 0
BBX 12 20 0 -4
BITMAP
0000
0000
0000
0000
0000
0000
fff0
fff0
0000
0000
f3f0
f3f0
3300
3300
3300
3300
3300
3300
3300
3300
ENDCHAR
STARTCHAR right_tee2
ENCODING 204
SWIDTH 666 0
DWIDTH 12 0
BBX 12 20 0 -4
BITMAP
3300
3300
3300
3300
3300
3300
33f0
33f0
3000
3000
33f0
33f0
3300
3300
3300
3300
3300
3300
3300
3300
ENDCHAR
STARTCHAR h_edge2
ENCODING 205
SWIDTH 666 0
DWIDTH 12 0
BBX 12 20 0 -4
BITMAP
0000
0000
0000
0000
0000
0000
fff0
fff0
0000
0000
fff0
fff0
0000
0000
0000
0000
0000
0000
0000
0000
ENDCHAR
STARTCHAR intersect2
ENCODING 206
SWIDTH 666 0
DWIDTH 12 0
BBX 12 20 0 -4
BITMAP
3300
3300
3300
3300
3300
3300
f3f0
f3f0
0000
0000
f3f0
f3f0
3300
3300
3300
3300
3300
3300
3300
3300
ENDCHAR
STARTCHAR up_tee2
ENCODING 207
SWIDTH 666 0
DWIDTH 12 0
BBX 12 20 0 -4
BITMAP
0c00
0c00
0c00
0c00
0c00
0c00
fff0
fff0
0000
0000
fff0
fff0
0000
0000
0000
0000
0000
0000
0000
0000
ENDCHAR
STARTCHAR up2_tee
ENCODING 208
SWIDTH 666 0
DWIDTH 12 0
BBX 12 20 0 -4
BITMAP
3300
3300
3300
3300
3300
3300
3300
3300
fff0
fff0
0000
0000
0000
0000
0000
0000
0000
0000
0000
0000
ENDCHAR
STARTCHAR down_tee2
ENCODING 209
SWIDTH 666 0
DWIDTH 12 0
BBX 12 20 0 -4
BITMAP
0000
0000
0000
0000
0000
0000
fff0
fff0
0000
0000
fff0
fff0
0c00
0c00
0c00
0c00
0c00
0c00
0c00
0c00
ENDCHAR
STARTCHAR down2_tee
ENCODING 210
SWIDTH 666 0
DWIDTH 12 0
BBX 12 20 0 -4
BITMAP
0000
0000
0000
0000
0000
0000
0000
0000
fff0
fff0
3300
3300
3300
3300
3300
3300
3300
3300
3300
3300
ENDCHAR
STARTCHAR ll2_corner
ENCODING 211
SWIDTH 666 0
DWIDTH 12 0
BBX 12 20 0 -4
BITMAP
3300
3300
3300
3300
3300
3300
3300
3300
3ff0
3ff0
0000
0000
0000
0000
0000
0000
0000
0000
0000
0000
ENDCHAR
STARTCHAR l2l_corner
ENCODING 212
SWIDTH 666 0
DWIDTH 12 0
BBX 12 20 0 -4
BITMAP
0c00
0c00
0c00
0c00
0c00
0c00
0ff0
0ff0
0c00
0c00
0ff0
0ff0
0000
0000
0000
0000
0000
0000
0000
0000
ENDCHAR
STARTCHAR u2l_corner
ENCODING 213
SWIDTH 666 0
DWIDTH 12 0
BBX 12 20 0 -4
BITMAP
0000
0000
0000
0000
0000
0000
0ff0
0ff0
0c00
0c00
0ff0
0ff0
0c00
0c00
0c00
0c00
0c00
0c00
0c00
0c00
ENDCHAR
STARTCHAR ul2_corner
ENCODING 214
SWIDTH 666 0
DWIDTH 12 0
BBX 12 20 0 -4
BITMAP
0000
0000
0000
0000
0000
0000
0000
0000
3ff0
3ff0
3300
3300
3300
3300
3300
3300
3300
3300
3300
3300
ENDCHAR
STARTCHAR intersect_v2
ENCODING 215
SWIDTH 666 0
DWIDTH 12 0
BBX 12 20 0 -4
BITMAP
3300
3300
3300
3300
3300
3300
3300
3300
fff0
fff0
3300
3300
3300
3300
3300
3300
3300
3300
3300
3300
ENDCHAR
STARTCHAR intersect_h2
ENCODING 216
SWIDTH 666 0
DWIDTH 12 0
BBX 12 20 0 -4
BITMAP
0c00
0c00
0c00
0c00
0c00
0c00
fff0
fff0
0c00
0c00
fff0
fff0
0c00
0c00
0c00
0c00
0c00
0c00
0c00
0c00
ENDCHAR
STARTCHAR lr_corner
ENCODING 217
SWIDTH 666 0
DWIDTH 12 0
BBX 12 20 0 -4
BITMAP
0c00
0c00
0c00
0c00
0c00
0c00
0c00
0c00
fc00
fc00
0000
0000
0000
0000
0000
0000
0000
0000
0000
0000
ENDCHAR
STARTCHAR ul_corner
ENCODING 218
SWIDTH 666 0
DWIDTH 12 0
BBX 12 20 0 -4
BITMAP
0000
0000
0000
0000
0000
0000
0000
0000
0ff0
0ff0
0c00
0c00
0c00
0c00
0c00
0c00
0c00
0c00
0c00
0c00
ENDCHAR
STARTCHAR block
ENCODING 219
SWIDTH 666 0
DWIDTH 12 0
BBX 12 20 0 -4
BITMAP
fff0
fff0
fff0
fff0
fff0
fff0
fff0
fff0
fff0
fff0
fff0
fff0
fff0
fff0
fff0
fff0
fff0
fff0
fff0
fff0
ENDCHAR
STARTCHAR bottom_block
ENCODING 220
SWIDTH 666 0
DWIDTH 12 0
BBX 12 20 0 -4
BITMAP
0000
0000
0000
0000
0000
0000
0000
0000
0000
0000
fff0
fff0
fff0
fff0
fff0
fff0
fff0
fff0
fff0
fff0
ENDCHAR
STARTCHAR left_block
ENCODING 221
SWIDTH 666 0
DWIDTH 12 0
BBX 12 20 0 -4
BITMAP
fc00
fc00
fc00
fc00
fc00
fc00
fc00
fc00
fc00
fc00
fc00
fc00
fc00
fc00
fc00
fc00
fc00
fc00
fc00
fc00
ENDCHAR
STARTCHAR left_block
ENCODING 222
SWIDTH 666 0
DWIDTH 12 0
BBX 12 20 0 -4
BITMAP
03f0
03f0
03f0
03f0
03f0
03f0
03f0
03f0
03f0
03f0
03f0
03f0
03f0
03f0
03f0
03f0
03f0
03f0
03f0
03f0
ENDCHAR
STARTCHAR top_block
ENCODING 223
SWIDTH 666 0
DWIDTH 12 0
BBX 12 20 0 -4
BITMAP
fff0
fff0
fff0
fff0
fff0
fff0
fff0
fff0
fff0
fff0
0000
0000
0000
0000
0000
0000
0000
0000
0000
0000
ENDCHAR
STARTCHAR alpha
ENCODING 224
SWIDTH 666 0
DWIDTH 12 0
BBX 12 20 0 -4
BITMAP
0000
0000
0000
0000
0000
0000
39c0
6f00
c600
c600
c600
c600
c600
c600
6f00
39c0
0000
0000
0000
0000
ENDCHAR
STARTCHAR beta
ENCODING 225
SWIDTH 666 0
DWIDTH 12 0
BBX 12 20 0 -4
BITMAP
0000
0000
0000
3e00
6300
c180
c180
c180
c300
c700
c180
c0c0
c0c0
c0c0
d0c0
cf80
c000
c000
0000
0000
ENDCHAR
STARTCHAR GAMMA
ENCODING 226
SWIDTH 666 0
DWIDTH 12 0
BBX 12 20 0 -4
BITMAP
0000
0000
ffc0
c0c0
c0c0
c0c0
c000
c000
c000
c000
c000
c000
c000
c000
c000
c000
0000
0000
0000
0000
ENDCHAR
STARTCHAR pi
ENCODING 227
SWIDTH 666 0
DWIDTH 12 0
BBX 12 20 0 -4
BITMAP
0000
0000
0000
0000
0000
0040
7fc0
ff80
b300
3300
3300
3300
3300
3300
3300
3300
0000
0000
0000
0000
ENDCHAR
STARTCHAR SIGMA
ENCODING 228
SWIDTH 666 0
DWIDTH 12 0
BBX 12 20 0 -4
BITMAP
0000
ffc0
c0c0
c0c0
60c0
3000
1800
0c00
0600
0c00
1800
3000
60c0
c0c0
c0c0
ffc0
0000
0000
0000
0000
ENDCHAR
STARTCHAR sigma
ENCODING 229
SWIDTH 666 0
DWIDTH 12 0
BBX 12 20 0 -4
BITMAP
0000
0000
0000
0000
0000
0000
7fc0
c600
c600
c600
c600
c600
c600
c600
c600
7c00
0000
0000
0000
0000
ENDCHAR
STARTCHAR mu
ENCODING 230
SWIDTH 666 0
DWIDTH 12 0
BBX 12 20 0 -4
BITMAP
0000
0000
0000
0000
0000
0000
6300
6300
6300
6300
6300
6300
6300
6300
7f80
60c0
6000
c000
0000
0000
ENDCHAR
STARTCHAR gamma
ENCODING 231
SWIDTH 666 0
DWIDTH 12 0
BBX 12 20 0 -4
BITMAP
0000
0000
0000
0000
0000
0040
7fc0
ff80
8c00
0c00
0c00
0c00
0c00
0c00
0c00
0c00
0000
0000
0000
0000
ENDCHAR
STARTCHAR PHI
ENCODING 232
SWIDTH 666 0
DWIDTH 12 0
BBX 12 20 0 -4
BITMAP
0000
0000
ffc0
0c00
0c00
0c00
7f80
c0c0
c0c0
c0c0
c0c0
c0c0
c0c0
7f80
0c00
0c00
0c00
ffc0
0000
0000
ENDCHAR
STARTCHAR THETA
ENCODING 233
SWIDTH 666 0
DWIDTH 12 0
BBX 12 20 0 -4
BITMAP
0000
0000
1e00
3300
6180
c0c0
c0c0
c0c0
ffc0
ffc0
c0c0
c0c0
c0c0
6180
3300
1e00
0000
0000
0000
0000
ENDCHAR
STARTCHAR OMEGA
ENCODING 234
SWIDTH 666 0
DWIDTH 12 0
BBX 12 20 0 -4
BITMAP
0000
0000
0c00
1e00
3300
6180
c0c0
c0c0
c0c0
c0c0
6180
3300
3300
3300
b340
f3c0
0000
0000
0000
0000
ENDCHAR
STARTCHAR delta
ENCODING 235
SWIDTH 666 0
DWIDTH 12 0
BBX 12 20 0 -4
BITMAP
0000
0000
0f80
18c0
1840
0c00
0600
0300
3f80
60c0
60c0
60c0
60c0
60c0
60c0
3f80
0000
0000
0000
0000
ENDCHAR
STARTCHAR infinity
ENCODING 236
SWIDTH 666 0
DWIDTH 12 0
BBX 12 20 0 -4
BITMAP
0000
0000
0000
0000
0000
0000
7b80
ffc0
ccc0
ccc0
ccc0
ccc0
ffc0
7b80
0000
0000
0000
0000
0000
0000
ENDCHAR
STARTCHAR phi
ENCODING 237
SWIDTH 666 0
DWIDTH 12 0
BBX 12 20 0 -4
BITMAP
0000
0000
0000
0000
0180
0300
7f80
c6c0
c6c0
ccc0
ccc0
d8c0
d8c0
7f80
3000
6000
0000
0000
0000
0000
ENDCHAR
STARTCHAR element_of
ENCODING 238
SWIDTH 666 0
DWIDTH 12 0
BBX 12 20 0 -4
BITMAP
0000
0000
1fc0
3000
6000
c000
c000
c000
ffc0
ffc0
c000
c000
c000
6000
3000
1fc0
0000
0000
0000
0000
ENDCHAR
STARTCHAR intersect
ENCODING 239
SWIDTH 666 0
DWIDTH 12 0
BBX 12 20 0 -4
BITMAP
0000
0000
1e00
3300
6180
c0c0
c0c0
c0c0
c0c0
c0c0
c0c0
c0c0
c0c0
c0c0
c0c0
c0c0
0000
0000
0000
0000
ENDCHAR
STARTCHAR equivalent_to
ENCODING 240
SWIDTH 666 0
DWIDTH 12 0
BBX 12 20 0 -4
BITMAP
0000
0000
0000
0000
ffc0
ffc0
0000
0000
ffc0
ffc0
0000
0000
ffc0
ffc0
0000
0000
0000
0000
0000
0000
ENDCHAR
STARTCHAR +/-
ENCODING 241
SWIDTH 666 0
DWIDTH 12 0
BBX 12 20 0 -4
BITMAP
0000
0000
0c00
0c00
0c00
0c00
ffc0
ffc0
0c00
0c00
0c00
0c00
0000
0000
ffc0
ffc0
0000
0000
0000
0000
ENDCHAR
STARTCHAR >=
ENCODING 242
SWIDTH 666 0
DWIDTH 12 0
BBX 12 20 0 -4
BITMAP
0000
0000
6000
7800
1e00
0780
01c0
0780
1e00
7800
6000
0000
0000
7fc0
7fc0
0000
0000
0000
0000
0000
ENDCHAR
STARTCHAR <=
ENCODING 243
SWIDTH 666 0
DWIDTH 12 0
BBX 12 20 0 -4
BITMAP
0000
0000
00c0
03c0
0f00
3c00
7000
3c00
0f00
03c0
00c0
0000
0000
7fc0
7fc0
0000
0000
0000
0000
0000
ENDCHAR
STARTCHAR integral-1
ENCODING 244
SWIDTH 666 0
DWIDTH 12 0
BBX 12 20 0 -4
BITMAP
0000
0000
0780
0cc0
0cc0
0c00
0c00
0c00
0c00
0c00
0c00
0c00
0c00
0c00
0c00
0c00
0c00
0c00
0c00
0c00
ENDCHAR
STARTCHAR integral-2
ENCODING 245
SWIDTH 666 0
DWIDTH 12 0
BBX 12 20 0 -4
BITMAP
0c00
0c00
0c00
0c00
0c00
0c00
0c00
0c00
0c00
0c00
0c00
0c00
0c00
cc00
cc00
7800
0000
0000
0000
0000
ENDCHAR
STARTCHAR divide
ENCODING 246
SWIDTH 666 0
DWIDTH 12 0
BBX 12 20 0 -4
BITMAP
0000
0000
0000
0e00
0e00
0e00
0000
0000
7fc0
7fc0
0000
0000
0e00
0e00
0e00
0000
0000
0000
0000
0000
ENDCHAR
STARTCHAR similar_to
ENCODING 247
SWIDTH 666 0
DWIDTH 12 0
BBX 12 20 0 -4
BITMAP
0000
0000
0000
0000
3800
7c40
47c0
0380
0000
3800
7c40
47c0
0380
0000
0000
0000
0000
0000
0000
0000
ENDCHAR
STARTCHAR degrees
ENCODING 248
SWIDTH 666 0
DWIDTH 12 0
BBX 12 20 0 -4
BITMAP
0000
0000
1e00
3300
3300
3300
3300
1e00
0000
0000
0000
0000
0000
0000
0000
0000
0000
0000
0000
0000
ENDCHAR
STARTCHAR bullet
ENCODING 249
SWIDTH 666 0
DWIDTH 12 0
BBX 12 20 0 -4
BITMAP
0000
0000
0000
0000
0000
0000
1c00
3e00
3e00
3e00
1c00
0000
0000
0000
0000
0000
0000
0000
0000
0000
ENDCHAR
STARTCHAR dot
ENCODING 250
SWIDTH 666 0
DWIDTH 12 0
BBX 12 20 0 -4
BITMAP
0000
0000
0000
0000
0000
0000
0000
0c00
1e00
1e00
0c00
0000
0000
0000
0000
0000
0000
0000
0000
0000
ENDCHAR
STARTCHAR square_root
ENCODING 251
SWIDTH 666 0
DWIDTH 12 0
BBX 12 20 0 -4
BITMAP
0000
0000
0fc0
0c00
0c00
0c00
0c00
0c00
0c00
0c00
0c00
cc00
6c00
3c00
1c00
0c00
0000
0000
0000
0000
ENDCHAR
STARTCHAR n-super
ENCODING 252
SWIDTH 666 0
DWIDTH 12 0
BBX 12 20 0 -4
BITMAP
0000
0000
6e00
7300
6300
6300
6300
6300
6300
6300
0000
0000
0000
0000
0000
0000
0000
0000
0000
0000
ENDCHAR
STARTCHAR 2-super
ENCODING 253
SWIDTH 666 0
DWIDTH 12 0
BBX 12 20 0 -4
BITMAP
0000
0000
3c00
6600
4600
0c00
1800
3000
6000
7e00
0000
0000
0000
0000
0000
0000
0000
0000
0000
0000
ENDCHAR
STARTCHAR middle_block
ENCODING 254
SWIDTH 666 0
DWIDTH 12 0
BBX 12 20 0 -4
BITMAP
0000
0000
0000
0000
0000
1f80
1f80
1f80
1f80
1f80
1f80
1f80
1f80
0000
0000
0000
0000
0000
0000
0000
ENDCHAR
STARTCHAR null2
ENCODING 255
SWIDTH 666 0
DWIDTH 12 0
BBX 12 20 0 -4
BITMAP
0000
0000
0000
0000
0000
0000
0000
0000
0000
0000
0000
0000
0000
0000
0000
0000
0000
0000
0000
0000
ENDCHAR
ENDFONT
